# MagicaVoxel @ ephtracy

# material
mtllib Pistol2_with_hand.mtl

# normals
vn -1 0 0
vn 1 0 0
vn 0 0 1
vn 0 0 -1
vn 0 -1 0
vn 0 1 0

# texcoords
vt 0.0371094 0.5
vt 0.900391 0.5
vt 0.935547 0.5
vt 0.955078 0.5
vt 0.994141 0.5

# verts
v 0 2 -0
v 0 3 -0
v 0 3 -1
v 0 2 -1
v 0 3 1
v 0 4 1
v 0 4 -0
v 0 0 2
v 0 1 2
v 0 1 1
v 0 0 1
v 0 2 2
v 0 3 2
v 0 2 1
v 0 2 -3
v 0 3 -3
v 0 3 -4
v 0 2 -4
v 0 3 -2
v 0 2 -2
v 0 1 -0
v 0 1 -1
v 0 4 -1
v 0 1 4
v 0 2 4
v 0 2 3
v 0 1 3
v -1 1 2
v -1 2 2
v -1 2 1
v -1 1 1
v 1 2 -0
v 1 2 -1
v 1 3 -1
v 1 3 -0
v 1 3 1
v 1 4 -0
v 1 4 1
v 1 0 2
v 1 0 1
v 1 1 1
v 1 1 2
v 1 2 2
v 1 2 1
v 1 3 2
v 1 2 -3
v 1 2 -4
v 1 3 -4
v 1 3 -3
v 1 2 -2
v 1 3 -2
v 1 1 -0
v 1 1 -1
v 1 4 -1
v 2 1 2
v 2 1 1
v 2 2 1
v 2 2 2
v 1 1 4
v 1 1 3
v 1 2 3
v 1 2 4

# faces

usemtl palette

f 1/4/1 2/4/1 3/4/1 4/4/1

f 5/4/1 6/4/1 7/4/1 2/4/1

f 8/5/1 9/5/1 10/5/1 11/5/1

f 12/5/1 13/5/1 5/5/1 14/5/1

f 15/4/1 16/4/1 17/4/1 18/4/1

f 4/4/1 3/4/1 19/4/1 20/4/1

f 21/4/1 1/4/1 4/4/1 22/4/1

f 14/4/1 5/4/1 2/4/1 1/4/1

f 20/4/1 19/4/1 16/4/1 15/4/1

f 2/2/1 7/2/1 23/2/1 3/2/1

f 24/3/1 25/3/1 26/3/1 27/3/1

f 28/1/1 29/1/1 30/1/1 31/1/1

f 27/1/1 26/1/1 12/1/1 9/1/1

f 10/1/1 14/1/1 1/1/1 21/1/1

f 32/4/2 33/4/2 34/4/2 35/4/2

f 36/4/2 35/4/2 37/4/2 38/4/2

f 39/5/2 40/5/2 41/5/2 42/5/2

f 43/5/2 44/5/2 36/5/2 45/5/2

f 46/4/2 47/4/2 48/4/2 49/4/2

f 33/4/2 50/4/2 51/4/2 34/4/2

f 52/4/2 53/4/2 33/4/2 32/4/2

f 44/4/2 32/4/2 35/4/2 36/4/2

f 50/4/2 46/4/2 49/4/2 51/4/2

f 35/2/2 34/2/2 54/2/2 37/2/2

f 55/1/2 56/1/2 57/1/2 58/1/2

f 59/3/2 60/3/2 61/3/2 62/3/2

f 60/1/2 42/1/2 43/1/2 61/1/2

f 41/1/2 52/1/2 32/1/2 44/1/2

f 5/4/3 36/4/3 38/4/3 6/4/3

f 8/5/3 39/5/3 42/5/3 9/5/3

f 12/5/3 43/5/3 45/5/3 13/5/3

f 42/1/3 55/1/3 58/1/3 43/1/3

f 24/3/3 59/3/3 62/3/3 25/3/3

f 28/1/3 9/1/3 12/1/3 29/1/3

f 11/5/4 10/5/4 41/5/4 40/5/4

f 18/4/4 17/4/4 48/4/4 47/4/4

f 22/4/4 4/4/4 33/4/4 53/4/4

f 3/2/4 23/2/4 54/2/4 34/2/4

f 41/1/4 44/1/4 57/1/4 56/1/4

f 31/1/4 30/1/4 14/1/4 10/1/4

f 8/5/5 11/5/5 40/5/5 39/5/5

f 15/4/5 18/4/5 47/4/5 46/4/5

f 4/4/5 20/4/5 50/4/5 33/4/5

f 21/4/5 22/4/5 53/4/5 52/4/5

f 20/4/5 15/4/5 46/4/5 50/4/5

f 42/1/5 41/1/5 56/1/5 55/1/5

f 24/3/5 27/3/5 60/3/5 59/3/5

f 28/1/5 31/1/5 10/1/5 9/1/5

f 27/1/5 9/1/5 42/1/5 60/1/5

f 10/1/5 21/1/5 52/1/5 41/1/5

f 6/4/6 38/4/6 37/4/6 7/4/6

f 13/5/6 45/5/6 36/5/6 5/5/6

f 16/4/6 49/4/6 48/4/6 17/4/6

f 3/4/6 34/4/6 51/4/6 19/4/6

f 19/4/6 51/4/6 49/4/6 16/4/6

f 7/2/6 37/2/6 54/2/6 23/2/6

f 43/1/6 58/1/6 57/1/6 44/1/6

f 25/3/6 62/3/6 61/3/6 26/3/6

f 29/1/6 12/1/6 14/1/6 30/1/6

f 26/1/6 61/1/6 43/1/6 12/1/6

# numNormals 6
# numTexCoords 5
# numVerts 62
# numFaces 60
